<?xml version="1.0" encoding="utf-8"?>
<!-- Generator: Adobe Illustrator 27.0.0, SVG Export Plug-In . SVG Version: 6.00 Build 0)  -->
<svg version="1.1" id="Слой_1" xmlns="http://www.w3.org/2000/svg" xmlns:xlink="http://www.w3.org/1999/xlink" x="0px" y="0px"
	 viewBox="0 0 646 190" style="enable-background:new 0 0 646 190;" xml:space="preserve">
<style type="text/css">
	.st0{fill:#A6A6A6;}
	.st1{fill:#FFFFFF;}
</style>
<g>
	<g>
		<path class="st0" d="M594.56,0H51.47c-1.98,0-3.94,0-5.91,0.01c-1.65,0.01-3.29,0.04-4.96,0.06c-3.62,0.04-7.24,0.32-10.82,0.84
			c-3.57,0.53-7.03,1.54-10.26,2.98c-3.23,1.45-6.18,3.34-8.74,5.6c-2.58,2.25-4.72,4.85-6.36,7.7c-1.64,2.84-2.78,5.89-3.37,9.04
			c-0.6,3.14-0.92,6.32-0.97,9.51C0.03,37.19,0.03,38.65,0,40.11V149.9c0.03,1.47,0.03,2.9,0.08,4.38c0.04,3.19,0.37,6.37,0.97,9.51
			c0.59,3.15,1.73,6.2,3.37,9.05c1.64,2.84,3.78,5.43,6.36,7.67c2.55,2.27,5.5,4.16,8.74,5.6c3.23,1.45,6.69,2.46,10.26,3
			c3.58,0.52,7.19,0.8,10.82,0.84c1.67,0.03,3.31,0.05,4.96,0.05c1.97,0.01,3.93,0.01,5.91,0.01h543.08c1.94,0,3.91,0,5.85-0.01
			c1.64,0,3.33-0.02,4.98-0.05c3.62-0.04,7.23-0.32,10.8-0.84c3.58-0.54,7.06-1.55,10.3-3c3.23-1.44,6.18-3.33,8.73-5.6
			c2.57-2.25,4.72-4.83,6.38-7.67c1.63-2.85,2.76-5.9,3.34-9.05c0.6-3.14,0.94-6.32,1-9.51c0.02-1.48,0.02-2.9,0.02-4.38
			c0.04-1.73,0.04-3.44,0.04-5.2V45.3c0-1.74,0-3.47-0.04-5.19c0-1.46,0-2.92-0.02-4.37c-0.07-3.19-0.4-6.37-1-9.51
			c-0.59-3.15-1.71-6.19-3.34-9.04c-3.33-5.71-8.62-10.36-15.11-13.3c-3.25-1.44-6.72-2.44-10.3-2.98c-3.57-0.52-7.18-0.8-10.8-0.84
			c-1.64-0.02-3.33-0.05-4.98-0.06C598.47,0,596.5,0,594.56,0L594.56,0z"/>
		<path d="M45.59,185.84c-1.64,0-3.25-0.02-4.88-0.05c-3.38-0.04-6.75-0.3-10.09-0.77c-3.11-0.47-6.13-1.35-8.94-2.6
			c-2.79-1.24-5.34-2.87-7.54-4.83c-2.24-1.93-4.1-4.17-5.51-6.63c-1.43-2.48-2.42-5.13-2.93-7.87c-0.56-2.94-0.86-5.92-0.9-8.91
			c-0.03-1-0.08-4.34-0.08-4.34V40.11c0,0,0.05-3.28,0.08-4.25c0.04-2.98,0.34-5.95,0.89-8.89c0.52-2.75,1.5-5.41,2.93-7.89
			c1.41-2.46,3.26-4.7,5.48-6.64c2.22-1.96,4.77-3.6,7.57-4.86c2.81-1.25,5.82-2.12,8.93-2.58c3.35-0.48,6.73-0.74,10.12-0.78
			l4.87-0.06h554.79l4.93,0.06c3.36,0.04,6.72,0.29,10.03,0.77c3.14,0.47,6.18,1.35,9.02,2.6c5.6,2.54,10.16,6.56,13.04,11.49
			c1.41,2.47,2.38,5.11,2.89,7.83c0.56,2.96,0.87,5.96,0.94,8.96c0.02,1.35,0.02,2.79,0.02,4.23c0.04,1.78,0.04,3.48,0.04,5.19
			v99.41c0,1.73,0,3.41-0.04,5.11c0,1.54,0,2.96-0.02,4.42c-0.06,2.95-0.37,5.89-0.92,8.8c-0.5,2.76-1.49,5.44-2.92,7.93
			c-1.42,2.43-3.27,4.66-5.48,6.58c-2.21,1.97-4.76,3.61-7.55,4.86c-2.84,1.26-5.87,2.14-9,2.61c-3.34,0.48-6.71,0.74-10.09,0.77
			c-1.58,0.03-3.24,0.05-4.84,0.05l-5.85,0.01L45.59,185.84z"/>
	</g>
	<g id="_Group_">
		<g id="_Group_2">
			<g id="_Group_3">
				<path id="_Path_" class="st1" d="M166.41,98.14c0.11-8.09,4.43-15.55,11.45-19.79c-4.45-6.23-11.64-10.05-19.39-10.28
					c-8.16-0.84-16.07,4.79-20.22,4.79c-4.24,0-10.64-4.71-17.53-4.57c-9.07,0.29-17.32,5.22-21.73,13
					c-9.4,15.96-2.39,39.41,6.61,52.31c4.5,6.32,9.77,13.37,16.65,13.12c6.74-0.27,9.26-4.22,17.39-4.22
					c8.06,0,10.42,4.22,17.45,4.06c7.23-0.12,11.79-6.34,16.13-12.72c3.24-4.5,5.73-9.47,7.38-14.74
					C172,115.54,166.42,107.28,166.41,98.14z"/>
				<path id="_Path_2" class="st1" d="M153.13,59.58c3.94-4.64,5.89-10.61,5.41-16.64c-6.02,0.62-11.59,3.44-15.58,7.91
					c-3.95,4.41-5.94,10.17-5.56,16.02C143.51,66.94,149.31,64.25,153.13,59.58z"/>
			</g>
		</g>
		<g>
			<path class="st1" d="M251.59,130.73h-23l-5.52,16h-9.74l21.78-59.18h10.12l21.78,59.18h-9.91L251.59,130.73z M230.97,123.35
				h18.23l-8.99-25.96h-0.25L230.97,123.35z"/>
			<path class="st1" d="M314.05,125.15c0,13.41-7.32,22.02-18.36,22.02c-5.71,0.29-11.08-2.64-13.84-7.55h-0.21V161h-9.03v-57.42
				h8.74v7.18h0.17c2.88-4.88,8.26-7.81,14.01-7.63C306.7,103.13,314.05,111.78,314.05,125.15z M304.77,125.15
				c0-8.74-4.6-14.48-11.62-14.48c-6.9,0-11.54,5.86-11.54,14.48c0,8.69,4.64,14.52,11.54,14.52
				C300.17,139.67,304.77,133.97,304.77,125.15z"/>
			<path class="st1" d="M362.47,125.15c0,13.41-7.32,22.02-18.36,22.02c-5.71,0.29-11.08-2.64-13.84-7.55h-0.21V161h-9.03v-57.42
				h8.74v7.18h0.17c2.88-4.88,8.26-7.81,14.01-7.63C355.11,103.13,362.47,111.78,362.47,125.15z M353.19,125.15
				c0-8.74-4.6-14.48-11.62-14.48c-6.9,0-11.54,5.86-11.54,14.48c0,8.69,4.64,14.52,11.54,14.52
				C348.59,139.67,353.19,133.97,353.19,125.15L353.19,125.15z"/>
			<path class="st1" d="M394.46,130.24c0.67,5.87,6.48,9.72,14.42,9.72c7.61,0,13.09-3.85,13.09-9.15c0-4.59-3.3-7.34-11.12-9.23
				l-7.82-1.85c-11.08-2.62-16.22-7.71-16.22-15.95c0-10.21,9.07-17.22,21.95-17.22c12.75,0,21.49,7.01,21.78,17.22h-9.11
				c-0.55-5.91-5.52-9.47-12.8-9.47s-12.25,3.61-12.25,8.86c0,4.18,3.18,6.65,10.96,8.53l6.65,1.6
				c12.38,2.87,17.52,7.75,17.52,16.41c0,11.07-8.99,18.01-23.29,18.01c-13.38,0-22.41-6.77-23-17.48L394.46,130.24z"/>
			<path class="st1" d="M450.99,93.37v10.21h8.36v7.01h-8.36v23.79c0,3.7,1.67,5.42,5.35,5.42c0.99-0.02,1.98-0.09,2.97-0.2v6.97
				c-1.65,0.3-3.33,0.44-5.01,0.41c-8.91,0-12.38-3.28-12.38-11.65v-24.73h-6.4v-7.01h6.4V93.37H450.99z"/>
			<path class="st1" d="M464.2,125.15c0-13.58,8.15-22.11,20.86-22.11c12.75,0,20.87,8.53,20.87,22.11
				c0,13.61-8.07,22.11-20.87,22.11C472.27,147.26,464.2,138.77,464.2,125.15z M496.73,125.15c0-9.31-4.35-14.81-11.67-14.81
				c-7.32,0-11.66,5.54-11.66,14.81c0,9.35,4.35,14.8,11.66,14.8C492.38,139.96,496.73,134.5,496.73,125.15L496.73,125.15z"/>
			<path class="st1" d="M513.38,103.58h8.61v7.34h0.21c1.2-4.73,5.62-7.98,10.58-7.8c1.04,0,2.08,0.11,3.09,0.33v8.28
				c-1.31-0.39-2.68-0.57-4.06-0.54c-5.02-0.2-9.26,3.63-9.46,8.56c-0.02,0.46,0,0.92,0.05,1.37v25.59h-9.03L513.38,103.58z"/>
			<path class="st1" d="M577.5,134.05c-1.21,7.83-8.99,13.21-18.94,13.21c-12.8,0-20.74-8.41-20.74-21.9
				c0-13.53,7.98-22.31,20.36-22.31c12.17,0,19.82,8.2,19.82,21.28v3.03h-31.07v0.54c-0.56,6.18,4.1,11.64,10.4,12.19
				c0.48,0.04,0.95,0.05,1.43,0.04c4.38,0.4,8.51-2.07,10.16-6.07L577.5,134.05z M546.98,121.17h21.99
				c0.32-5.72-4.14-10.62-9.97-10.94c-0.27-0.01-0.54-0.02-0.82-0.01c-6.15-0.04-11.16,4.83-11.2,10.86
				C546.98,121.11,546.98,121.14,546.98,121.17z"/>
		</g>
	</g>
	<g id="_Group_4">
		<g>
			<path class="st1" d="M227.35,48.17h4.38c3.02,0.36,5.77-1.71,6.14-4.64c0.02-0.14,0.03-0.29,0.04-0.43
				c0-2.93-2.27-4.83-6.13-4.83c-3.2-0.43-6.15,1.73-6.59,4.83c-0.01,0.05-0.01,0.1-0.02,0.15h-4.81c0.33-5.5,5.2-9.69,10.86-9.37
				c0.24,0.01,0.48,0.04,0.72,0.07c6.45,0,11,3.51,11,8.55c0.03,3.48-2.45,6.52-5.95,7.28v0.37c4.2,0.18,7.45,3.62,7.29,7.69
				c-0.62,5.84-6,10.08-12.01,9.48c-0.08-0.01-0.15-0.02-0.23-0.03c-5.96,0.79-11.45-3.26-12.27-9.05
				c-0.02-0.12-0.03-0.24-0.04-0.36h4.89c0.3,3.04,3.18,5.01,7.42,5.01c4.25,0,7.02-2.21,7.02-5.31c0-3.15-2.61-5.09-7.18-5.09
				h-4.52V48.17z"/>
			<path class="st1" d="M249.82,59.74c0-4.32,3.32-6.81,9.2-7.17l6.7-0.37v-2.07c0-2.54-1.72-3.97-5.06-3.97
				c-2.73,0-4.61,0.97-5.16,2.67h-4.73c0.5-4.12,4.5-6.77,10.11-6.77c6.2,0,9.7,3,9.7,8.07v16.4h-4.7v-3.37h-0.39
				c-1.6,2.46-4.43,3.9-7.43,3.77c-4.1,0.41-7.78-2.48-8.2-6.46C249.83,60.22,249.82,59.98,249.82,59.74z M265.72,57.69v-2.01
				l-6.04,0.37c-3.41,0.22-4.95,1.35-4.95,3.46c0,2.16,1.93,3.42,4.59,3.42c3.2,0.31,6.06-1.95,6.39-5.06
				C265.71,57.82,265.71,57.75,265.72,57.69z"/>
			<path class="st1" d="M283.54,46.51v20.02h-4.88V42.52h16.29v3.99L283.54,46.51z"/>
			<path class="st1" d="M324.53,54.52c0,7.63-3.97,12.41-10.22,12.41c-3.13,0.21-6.1-1.37-7.61-4.03h-0.39v11.62h-4.88V42.52h4.7
				v3.97h0.36c1.54-2.76,4.54-4.44,7.77-4.37C320.55,42.12,324.53,46.89,324.53,54.52z M319.5,54.52c0-5.07-2.47-8.14-6.61-8.14
				c-4.11,0-6.68,3.13-6.68,8.16c0,5,2.57,8.14,6.66,8.14C317.03,62.67,319.5,59.61,319.5,54.52z"/>
			<path class="st1" d="M331.03,75.13v-4.08c0.53,0.07,1.06,0.09,1.59,0.09c2.15,0.15,4.08-1.29,4.47-3.35l0.36-1.17l-8.95-24.1
				h5.32l6.2,19.07h0.39l6.18-19.07h5.18l-9.22,25c-2.11,5.84-4.45,7.72-9.49,7.72C332.64,75.24,331.48,75.2,331.03,75.13z"/>
			<path class="st1" d="M355.57,59.72h4.86c0.48,2.12,2.52,3.22,5.38,3.22c3.25,0,5.25-1.39,5.25-3.55c0-2.31-1.79-3.42-5.25-3.42
				h-3.7v-3.68h3.64c2.95,0,4.45-1.1,4.45-3.11c0-1.76-1.45-3.11-4.45-3.11c-2.73,0-4.73,1.12-5.04,3.02H356
				c0.73-4.53,5.07-7.66,9.75-7.03c5.88,0,9.24,2.58,9.24,6.64c0.06,2.33-1.57,4.38-3.91,4.92v0.37c2.79,0.35,4.87,2.67,4.84,5.4
				c0,4.56-4,7.58-10.11,7.58C360.41,66.97,356.02,64.57,355.57,59.72z"/>
			<path class="st1" d="M382.95,66.53V42.52h4.84v16.51h0.39l11.4-16.51h4.84v24.01h-4.84v-16.6h-0.36l-11.42,16.6L382.95,66.53z"/>
			<path class="st1" d="M431.07,46.51h-7.79v20.02h-4.89V46.51h-7.79v-3.99h20.47V46.51z"/>
			<path class="st1" d="M457.36,60.05c-1.37,4.53-5.89,7.45-10.72,6.95c-6.2,0.16-11.36-4.59-11.53-10.61
				c-0.02-0.59,0.02-1.19,0.1-1.78c-0.84-6.06,3.55-11.63,9.79-12.45c0.53-0.07,1.07-0.1,1.61-0.1c6.88,0,11.04,4.56,11.04,12.1
				v1.65h-17.47v0.27c-0.31,3.49,2.36,6.56,5.95,6.86c0.21,0.02,0.42,0.02,0.63,0.02c2.39,0.28,4.71-0.87,5.88-2.91L457.36,60.05z
				 M440.19,52.31h12.49c0.24-3.19-2.22-5.97-5.51-6.21c-0.19-0.01-0.38-0.02-0.58-0.01c-3.49-0.05-6.36,2.66-6.4,6.05
				C440.19,52.2,440.19,52.26,440.19,52.31L440.19,52.31z"/>
			<path class="st1" d="M478.06,42.52h11.15c4.84,0,7.68,2.38,7.68,6.1c0.02,2.44-1.73,4.55-4.18,5.07v0.37
				c3,0.18,5.33,2.62,5.29,5.53c0,4.19-3.25,6.92-8.67,6.92h-11.27V42.52z M482.9,46.16v6.22h4.84c2.95,0,4.36-1.1,4.36-3.13
				c0-1.87-1.23-3.09-3.82-3.09L482.9,46.16z M482.9,55.86v7.03h5.79c2.89,0,4.43-1.24,4.43-3.51c0-2.4-1.75-3.53-5.04-3.53
				L482.9,55.86z"/>
		</g>
	</g>
</g>
</svg>
