<?xml version="1.0" encoding="utf-8"?>
<!-- Generator: Adobe Illustrator 27.0.0, SVG Export Plug-In . SVG Version: 6.00 Build 0)  -->
<svg version="1.1" id="Слой_1" xmlns="http://www.w3.org/2000/svg" xmlns:xlink="http://www.w3.org/1999/xlink" x="0px" y="0px"
	 viewBox="0 0 300 300" style="enable-background:new 0 0 300 300;" xml:space="preserve">
<style type="text/css">
	.st0{stroke:#000000;stroke-miterlimit:10;}
</style>
<path class="st0" d="M295.3,142.3C295.3,142.3,295.3,142.3,295.3,142.3c-50.8-41-101.6-82.1-152.4-123.2c-2.4-2-4.9-3.9-7.3-5.9
	c-1.2-1-1.2-1-4.4-3.6C124.6,4.5,118.2,1,109.8,1h-5.4C88.6,1,75.6,13.7,75.6,29.3v0c0,9.9,5.3,18.7,13.2,23.7c0,0,0,0,0,0
	c34.8,27.8,45,31.5,119.6,92c3.6,3,3.6,4.9,0,8.9c0,0,0,0,0,0c-47.2,36.4-70.4,53-117.6,89.4c0,0-3.2,2.4-3.3,2.4
	c-7.3,7.2-10.7,12.2-10.7,22.4v0c0,15.8,13,28.8,28.8,28.8h5.4c7.6,0,14.5-3,19.7-7.8c0,0,0,0,0,0L293,155.7c0,0,0,0,0,0
	C299.1,150,298.5,147.2,295.3,142.3z"/>
</svg>
