<?xml version="1.0" encoding="utf-8"?>
<!-- Generator: Adobe Illustrator 27.0.0, SVG Export Plug-In . SVG Version: 6.00 Build 0)  -->
<svg version="1.1" id="Слой_1" xmlns="http://www.w3.org/2000/svg" xmlns:xlink="http://www.w3.org/1999/xlink" x="0px" y="0px"
	 viewBox="0 0 300 300" style="enable-background:new 0 0 300 300;" xml:space="preserve">
<style type="text/css">
	.st0{stroke:#000000;stroke-miterlimit:10;}
</style>
<path class="st0" d="M52.38,152.53c-2-3-2-5,0-9c26-37,52-74,78-111c1.08-1.38,3.87-5.32,4-11c0.16-7.08-3.93-11.8-5-13
	c-2.52-2.82-5.32-4.28-7-5c-2.4-0.7-6.28-1.5-11-1c-1.14,0.12-5.25,0.63-10,3c-3.02,1.51-5.28,3.26-6.8,4.62l0,0L5.79,141.73
	c-3.36,5.82-3.04,8.58-1.3,13.56c27.96,41.74,55.93,83.49,83.89,125.24c1.33,2,2.67,4,4,6c1.34,2.01,3.2,4.01,6,6
	c3.55,2.53,6.9,3.44,9,4c2.34,0.62,5.21,1.39,9,1c3.06-0.32,5.46-1.25,7-2c1.69-0.91,4.53-2.74,7-6c0.94-1.25,3.28-4.41,4-9
	c0.23-1.48,0.48-4.99-2-12c-1.46-4.13-6.06-11.6-7-13C104.8,224.85,94.62,215.88,52.38,152.53z"/>
</svg>
