<?xml version="1.0" encoding="utf-8"?>
<!-- Generator: Adobe Illustrator 27.0.0, SVG Export Plug-In . SVG Version: 6.00 Build 0)  -->
<svg version="1.1" id="Слой_1" xmlns="http://www.w3.org/2000/svg" xmlns:xlink="http://www.w3.org/1999/xlink" x="0px" y="0px"
	 viewBox="0 0 300 300" style="enable-background:new 0 0 300 300;" xml:space="preserve">
<style type="text/css">
	.st0{stroke:#000000;stroke-miterlimit:10;}
</style>
<path class="st0" d="M7.83,145.43C7.83,145.43,7.83,145.43,7.83,145.43c50.8-41.05,101.62-82.1,152.41-123.16
	c2.42-1.97,4.85-3.93,7.27-5.9c1.24-1.01,1.24-1.01,4.37-3.63c6.69-5.15,13.08-8.69,21.49-8.69h5.41
	c15.84,0,28.79,12.74,28.79,28.31v0c0,9.92-5.26,18.68-13.17,23.74c0,0,0,0,0,0c-34.83,27.84-44.99,31.5-119.57,92.03
	c-3.63,2.95-3.63,4.92,0,8.85c0,0,0,0,0,0c47.24,36.38,70.4,53.04,117.64,89.43c0.03,0.02,3.22,2.36,3.26,2.38
	c7.27,7.25,10.72,12.22,10.72,22.36v0c0,15.84-12.96,28.79-28.79,28.79h-5.41c-7.6,0-14.53-2.99-19.68-7.84c0,0,0,0-0.01,0
	L10.19,158.76c0,0,0,0,0,0C4.09,153.04,4.67,150.32,7.83,145.43z"/>
</svg>
