<?xml version="1.0" encoding="utf-8"?>
<!-- Generator: Adobe Illustrator 27.0.0, SVG Export Plug-In . SVG Version: 6.00 Build 0)  -->
<svg version="1.1" id="Слой_1" xmlns="http://www.w3.org/2000/svg" xmlns:xlink="http://www.w3.org/1999/xlink" x="0px" y="0px"
	 viewBox="0 0 300 300" style="enable-background:new 0 0 300 300;" xml:space="preserve">
<style type="text/css">
	.st0{stroke:#000000;stroke-miterlimit:10;}
</style>
<path class="st0" d="M60.88,288.56C60.88,288.56,60.88,288.56,60.88,288.56l88.79-131.58c3.36-5.82,3.04-8.58,1.3-13.56L62.19,11.84
	c0,0,0,0,0,0C52.5,0.5,40.5,3.5,40.5,16.42l1,3.08c0,0.71,1.6,3.42,2,4l85.1,122.52c0.82,1.19,0.82,2.76,0,3.95L41.12,277.16
	c-0.49,0.61-0.99,1.31-1.46,2.12c-1.35,2.33-1.91,4.57-2.16,6.22c-0.03,0.89-0.07,5.06,3,8c3.85,3.69,9.42,2.37,11,2
	C57.22,294.15,60.19,289.68,60.88,288.56z"/>
</svg>
