<?xml version="1.0" encoding="utf-8"?>
<!-- Generator: Adobe Illustrator 28.0.0, SVG Export Plug-In . SVG Version: 6.00 Build 0)  -->
<svg version="1.1" id="Layer_1" xmlns="http://www.w3.org/2000/svg" xmlns:xlink="http://www.w3.org/1999/xlink" x="0px" y="0px"
	 viewBox="0 0 512 512" style="enable-background:new 0 0 512 512;" xml:space="preserve">
<g>
	<path d="M256,512c-30.5,0-59.4-11.8-81.2-33.1l-84.1-77.7c-44.9-44.9-69.3-103.8-69.3-166.5S45.7,113,90.1,68.7S193.3,0,256,0
		s121.6,24.4,165.9,68.7l0,0c44.3,44.3,68.7,103.2,68.7,165.9s-24.4,121.6-68.7,165.9l-85.2,78.7C315.4,500.2,286.5,512,256,512
		L256,512z M256,42.7c-51.3,0-99.5,20-135.8,56.2S64,183.4,64,234.7s20,99.5,56.2,135.8l84,77.5c28.5,27.9,75.6,27.4,103.2,0.4
		l85-78.5C428.1,334.2,448,286,448,234.7s-20-99.5-56.2-135.8C355.5,62.7,307.3,42.7,256,42.7L256,42.7z"/>
	<path d="M256,130c-55.2,0-100,44.8-100,100s44.8,100,100,100s100-44.8,100-100S311.2,130,256,130z M256,290c-33.1,0-60-26.9-60-60
		s26.9-60,60-60s60,26.9,60,60S289.1,290,256,290z"/>
</g>
</svg>
