<?xml version="1.0" encoding="utf-8"?>
<!-- Generator: Adobe Illustrator 27.0.0, SVG Export Plug-In . SVG Version: 6.00 Build 0)  -->
<svg version="1.1" id="Слой_1" xmlns="http://www.w3.org/2000/svg" xmlns:xlink="http://www.w3.org/1999/xlink" x="0px" y="0px"
	 viewBox="0 0 600 300"  width="60" height="30" style="enable-background:new 0 0 600 300;" xml:space="preserve">
<style type="text/css">
	.st0{stroke:#000000;stroke-miterlimit:10;}
</style>
<path class="st0" d="M27.5,135.5h513l-145-90c-0.45-1.13-2.14-5.75,0-9c2.71-4.12,11.09-5.31,19,0
	C468.33,72.33,522.17,108.17,576,144L413.5,260.5c-6.82,5.65-15.02,4.93-18,1c-2.62-3.45-0.76-8.79-0.5-9.5
	c48.5-33.17,97-66.33,145.5-99.5l-513,1c-4.94,0-9-4.06-9-9S22.56,135.5,27.5,135.5z"/>
<path class="st0" d="M386.5-107.5"/>
</svg>
