<?xml version="1.0" encoding="utf-8"?>
<!-- Generator: Adobe Illustrator 27.0.0, SVG Export Plug-In . SVG Version: 6.00 Build 0)  -->
<svg version="1.1" id="Слой_1" xmlns="http://www.w3.org/2000/svg" xmlns:xlink="http://www.w3.org/1999/xlink" x="0px" y="0px"
	 viewBox="0 0 300 300"  width="20" height="20" style="enable-background:new 0 0 300 300;" xml:space="preserve">
<style type="text/css">
	.st0{fill:#00FF8B;}
</style>
<g>
	<circle cx="148.5" cy="146.5" r="125"/>
	<path d="M148.5,22c33.26,0,64.52,12.95,88.03,36.47C260.05,81.98,273,113.24,273,146.5s-12.95,64.52-36.47,88.03
		C213.02,258.05,181.76,271,148.5,271s-64.52-12.95-88.03-36.47C36.95,211.02,24,179.76,24,146.5s12.95-64.52,36.47-88.03
		C83.98,34.95,115.24,22,148.5,22 M148.5,21C79.19,21,23,77.19,23,146.5S79.19,272,148.5,272S274,215.81,274,146.5
		S217.81,21,148.5,21L148.5,21z"/>
</g>
<g>
	<circle class="st0" cx="149" cy="146" r="112.5"/>
	<path d="M149,34c29.92,0,58.04,11.65,79.2,32.8S261,116.08,261,146s-11.65,58.04-32.8,79.2S178.92,258,149,258
		s-58.04-11.65-79.2-32.8S37,175.92,37,146s11.65-58.04,32.8-79.2S119.08,34,149,34 M149,33C86.59,33,36,83.59,36,146
		s50.59,113,113,113s113-50.59,113-113S211.41,33,149,33L149,33z"/>
</g>
<g>
	<path d="M119.75,68.04v64.08h61.5V68.04h16.6v153.16h-16.6v-71.81h-61.5v71.81h-16.41V68.04H119.75z"/>
</g>
</svg>
