<?xml version="1.0"?>
<svg width="24" height="24" xmlns="http://www.w3.org/2000/svg" xmlns:svg="http://www.w3.org/2000/svg">
 <g class="layer">
  <title>Layer 1</title>
  <path d="m23.92,12c0,4.41 -3.57,8 -7.95,8l-12.92,0l2.28,2.29c0.39,0.39 0.39,1.03 0,1.42c-0.19,0.19 -0.45,0.29 -0.7,0.29s-0.52,-0.1 -0.71,-0.29l-3.27,-3.3c-0.78,-0.77 -0.78,-2.04 0,-2.82l3.27,-3.3c0.39,-0.39 1.01,-0.39 1.4,0s0.39,1.03 0,1.42l-2.28,2.29l12.92,0c3.29,0 5.96,-2.69 5.96,-6c0,-0.55 0.45,-1 0.99,-1s0.99,0.45 0.99,1zm-22.86,1c0.55,0 0.99,-0.45 0.99,-1c0,-3.31 2.67,-6 5.96,-6l12.92,0l-2.28,2.29c-0.39,0.39 -0.39,1.03 0,1.42c0.19,0.19 0.45,0.29 0.7,0.29s0.52,-0.1 0.71,-0.29l3.27,-3.3c0.78,-0.78 0.78,-2.05 0,-2.82l-3.27,-3.3c-0.39,-0.39 -1.01,-0.39 -1.4,0s-0.39,1.03 0,1.42l2.28,2.29l-12.92,0c-4.38,0 -7.95,3.59 -7.95,8c0,0.55 0.45,1 0.99,1z" 
    transform="rotate(-89.7495 12 11.9988)"
    />
 </g>
</svg>